<svg width="300" height="200" viewBox="0 0 300 200" xmlns="http://www.w3.org/2000/svg">
<rect x="0" y="0" width="300" height="200" opacity="1" fill="#FFFFFF" stroke="none"/>
<line opacity="0.1" stroke="#000000" stroke-width="1" x1="69" y1="174" x2="69" y2="5"/>
<line opacity="0.1" stroke="#000000" stroke-width="1" x1="159" y1="174" x2="159" y2="5"/>
<line opacity="0.1" stroke="#000000" stroke-width="1" x1="249" y1="174" x2="249" y2="5"/>
<line opacity="0.1" stroke="#000000" stroke-width="1" x1="25" y1="174" x2="294" y2="174"/>
<line opacity="0.1" stroke="#000000" stroke-width="1" x1="25" y1="156" x2="294" y2="156"/>
<line opacity="0.1" stroke="#000000" stroke-width="1" x1="25" y1="137" x2="294" y2="137"/>
<line opacity="0.1" stroke="#000000" stroke-width="1" x1="25" y1="118" x2="294" y2="118"/>
<line opacity="0.1" stroke="#000000" stroke-width="1" x1="25" y1="99" x2="294" y2="99"/>
<line opacity="0.1" stroke="#000000" stroke-width="1" x1="25" y1="81" x2="294" y2="81"/>
<line opacity="0.1" stroke="#000000" stroke-width="1" x1="25" y1="62" x2="294" y2="62"/>
<line opacity="0.1" stroke="#000000" stroke-width="1" x1="25" y1="43" x2="294" y2="43"/>
<line opacity="0.1" stroke="#000000" stroke-width="1" x1="25" y1="24" x2="294" y2="24"/>
<line opacity="0.1" stroke="#000000" stroke-width="1" x1="25" y1="5" x2="294" y2="5"/>
<line opacity="0.2" stroke="#000000" stroke-width="1" x1="69" y1="174" x2="69" y2="5"/>
<line opacity="0.2" stroke="#000000" stroke-width="1" x1="159" y1="174" x2="159" y2="5"/>
<line opacity="0.2" stroke="#000000" stroke-width="1" x1="249" y1="174" x2="249" y2="5"/>
<line opacity="0.2" stroke="#000000" stroke-width="1" x1="25" y1="174" x2="294" y2="174"/>
<line opacity="0.2" stroke="#000000" stroke-width="1" x1="25" y1="156" x2="294" y2="156"/>
<line opacity="0.2" stroke="#000000" stroke-width="1" x1="25" y1="137" x2="294" y2="137"/>
<line opacity="0.2" stroke="#000000" stroke-width="1" x1="25" y1="118" x2="294" y2="118"/>
<line opacity="0.2" stroke="#000000" stroke-width="1" x1="25" y1="99" x2="294" y2="99"/>
<line opacity="0.2" stroke="#000000" stroke-width="1" x1="25" y1="81" x2="294" y2="81"/>
<line opacity="0.2" stroke="#000000" stroke-width="1" x1="25" y1="62" x2="294" y2="62"/>
<line opacity="0.2" stroke="#000000" stroke-width="1" x1="25" y1="43" x2="294" y2="43"/>
<line opacity="0.2" stroke="#000000" stroke-width="1" x1="25" y1="24" x2="294" y2="24"/>
<line opacity="0.2" stroke="#000000" stroke-width="1" x1="25" y1="5" x2="294" y2="5"/>
<polyline fill="none" opacity="1" stroke="#000000" stroke-width="1" points="24,5 24,174 "/>
<text x="15" y="174" dy="0.5ex" text-anchor="end" font-family="sans-serif" font-size="9.67741935483871" opacity="1" fill="#000000">
0
</text>
<polyline fill="none" opacity="1" stroke="#000000" stroke-width="1" points="19,174 24,174 "/>
<text x="15" y="156" dy="0.5ex" text-anchor="end" font-family="sans-serif" font-size="9.67741935483871" opacity="1" fill="#000000">
1
</text>
<polyline fill="none" opacity="1" stroke="#000000" stroke-width="1" points="19,156 24,156 "/>
<text x="15" y="137" dy="0.5ex" text-anchor="end" font-family="sans-serif" font-size="9.67741935483871" opacity="1" fill="#000000">
2
</text>
<polyline fill="none" opacity="1" stroke="#000000" stroke-width="1" points="19,137 24,137 "/>
<text x="15" y="118" dy="0.5ex" text-anchor="end" font-family="sans-serif" font-size="9.67741935483871" opacity="1" fill="#000000">
3
</text>
<polyline fill="none" opacity="1" stroke="#000000" stroke-width="1" points="19,118 24,118 "/>
<text x="15" y="99" dy="0.5ex" text-anchor="end" font-family="sans-serif" font-size="9.67741935483871" opacity="1" fill="#000000">
4
</text>
<polyline fill="none" opacity="1" stroke="#000000" stroke-width="1" points="19,99 24,99 "/>
<text x="15" y="81" dy="0.5ex" text-anchor="end" font-family="sans-serif" font-size="9.67741935483871" opacity="1" fill="#000000">
5
</text>
<polyline fill="none" opacity="1" stroke="#000000" stroke-width="1" points="19,81 24,81 "/>
<text x="15" y="62" dy="0.5ex" text-anchor="end" font-family="sans-serif" font-size="9.67741935483871" opacity="1" fill="#000000">
6
</text>
<polyline fill="none" opacity="1" stroke="#000000" stroke-width="1" points="19,62 24,62 "/>
<text x="15" y="43" dy="0.5ex" text-anchor="end" font-family="sans-serif" font-size="9.67741935483871" opacity="1" fill="#000000">
7
</text>
<polyline fill="none" opacity="1" stroke="#000000" stroke-width="1" points="19,43 24,43 "/>
<text x="15" y="24" dy="0.5ex" text-anchor="end" font-family="sans-serif" font-size="9.67741935483871" opacity="1" fill="#000000">
8
</text>
<polyline fill="none" opacity="1" stroke="#000000" stroke-width="1" points="19,24 24,24 "/>
<text x="15" y="5" dy="0.5ex" text-anchor="end" font-family="sans-serif" font-size="9.67741935483871" opacity="1" fill="#000000">
9
</text>
<polyline fill="none" opacity="1" stroke="#000000" stroke-width="1" points="19,5 24,5 "/>
<polyline fill="none" opacity="1" stroke="#000000" stroke-width="1" points="25,175 294,175 "/>
<text x="69" y="185" dy="0.76em" text-anchor="middle" font-family="sans-serif" font-size="9.67741935483871" opacity="1" fill="#000000">
1
</text>
<polyline fill="none" opacity="1" stroke="#000000" stroke-width="1" points="69,175 69,180 "/>
<text x="159" y="185" dy="0.76em" text-anchor="middle" font-family="sans-serif" font-size="9.67741935483871" opacity="1" fill="#000000">
2
</text>
<polyline fill="none" opacity="1" stroke="#000000" stroke-width="1" points="159,175 159,180 "/>
<text x="249" y="185" dy="0.76em" text-anchor="middle" font-family="sans-serif" font-size="9.67741935483871" opacity="1" fill="#000000">
3
</text>
<polyline fill="none" opacity="1" stroke="#000000" stroke-width="1" points="249,175 249,180 "/>
<rect x="35" y="62" width="69" height="112" opacity="1" fill="#0000FF" stroke="none"/>
<rect x="124" y="24" width="70" height="150" opacity="1" fill="#0000FF" stroke="none"/>
<rect x="214" y="81" width="70" height="93" opacity="1" fill="#0000FF" stroke="none"/>
</svg>
